<svg xmlns="http://www.w3.org/2000/svg" width="20" height="13" viewBox="0 0 20 13">
  <defs>
    <style>
      .cls-1 {
        fill: #67407f;
        fill-rule: evenodd;
      }
    </style>
  </defs>
  <path id="architecture.png_architecture.svg_" data-name="architecture.png, architecture.svg " class="cls-1" d="M396.266,1909.56h-4.537a0.664,0.664,0,0,0-.7.61v2.22a0.662,0.662,0,0,0,.7.61h4.533a0.658,0.658,0,0,0,.7-0.61v-2.22A0.658,0.658,0,0,0,396.266,1909.56Zm7.037,0h-4.537a0.664,0.664,0,0,0-.7.61v2.22a0.662,0.662,0,0,0,.7.61H403.3a0.658,0.658,0,0,0,.7-0.61v-2.22A0.668,0.668,0,0,0,403.3,1909.56Zm-14.069,0H384.7a0.664,0.664,0,0,0-.7.61v2.22a0.662,0.662,0,0,0,.7.61h4.532a0.658,0.658,0,0,0,.7-0.61v-2.22A0.66,0.66,0,0,0,389.234,1909.56Zm-1.726-1.89h5.951v1.06h1.086v-1.06H400.5v1.06h1.086v-1.54a0.509,0.509,0,0,0-.541-0.47h-6.5v-1.58h3.053a0.8,0.8,0,0,0,.844-0.74v-3.66a0.8,0.8,0,0,0-.844-0.74H390.4a0.8,0.8,0,0,0-.845.74v3.67a0.805,0.805,0,0,0,.845.74h3.053v1.57h-6.492a0.509,0.509,0,0,0-.541.47v1.54h1.086v-1.06Zm3.426-5.96a0.227,0.227,0,0,1,.242-0.21h5.648a0.23,0.23,0,0,1,.241.21v0.28a0.226,0.226,0,0,1-.241.21h-5.648a0.224,0.224,0,0,1-.242-0.21v-0.28h0Zm0.242,1.93a0.231,0.231,0,0,1-.242-0.21v-0.28a0.227,0.227,0,0,1,.242-0.21h5.648a0.223,0.223,0,0,1,.241.21v0.28a0.226,0.226,0,0,1-.241.21h-5.648Z" transform="translate(-384 -1900)"/>
</svg>
