<svg xmlns="http://www.w3.org/2000/svg" width="20" height="17" viewBox="0 0 20 17">
  <defs>
    <style>
      .cls-1 {
        fill: #67407f;
        fill-rule: evenodd;
      }
    </style>
  </defs>
  <path id="calendar-next.png8_calendar-next.svg" data-name="calendar-next.png8, calendar-next.svg" class="cls-1" d="M1271.34,441.661h-0.81v1.173a1.966,1.966,0,0,1-3.93,0v-1.173h-2.63v1.173a1.971,1.971,0,0,1-3.94,0v-1.173h-2.63v1.173a1.966,1.966,0,0,1-3.93,0v-1.173h-0.81a0.647,0.647,0,0,0-.66.64v14.06a0.646,0.646,0,0,0,.66.639h18.68a0.646,0.646,0,0,0,.66-0.639V442.3A0.647,0.647,0,0,0,1271.34,441.661Zm-12.48,12.356a0.647,0.647,0,0,1-.66.64h-2.14a0.653,0.653,0,0,1-.66-0.64V451.93a0.653,0.653,0,0,1,.66-0.639h2.14a0.646,0.646,0,0,1,.66.639v2.087h0Zm0-4.985a0.647,0.647,0,0,1-.66.64h-2.14a0.653,0.653,0,0,1-.66-0.64v-2.087a0.653,0.653,0,0,1,.66-0.639h2.14a0.646,0.646,0,0,1,.66.639v2.087h0Zm4.87,4.985a0.653,0.653,0,0,1-.66.64h-2.14a0.653,0.653,0,0,1-.66-0.64V451.93a0.653,0.653,0,0,1,.66-0.639h2.14a0.653,0.653,0,0,1,.66.639v2.087Zm0-4.985a0.653,0.653,0,0,1-.66.64h-2.14a0.653,0.653,0,0,1-.66-0.64v-2.087a0.653,0.653,0,0,1,.66-0.639h2.14a0.653,0.653,0,0,1,.66.639v2.087Zm4.87,4.985a0.653,0.653,0,0,1-.66.64h-2.14a0.647,0.647,0,0,1-.66-0.64V451.93a0.646,0.646,0,0,1,.66-0.639h2.14a0.653,0.653,0,0,1,.66.639v2.087h0Zm0-4.985a0.653,0.653,0,0,1-.66.64h-2.14a0.647,0.647,0,0,1-.66-0.64v-2.087a0.646,0.646,0,0,1,.66-0.639h2.14a0.653,0.653,0,0,1,.66.639v2.087h0ZM1262,440a0.653,0.653,0,0,0-.66.639v2.195a0.66,0.66,0,0,0,1.32,0v-2.195A0.653,0.653,0,0,0,1262,440Zm-6.56,0a0.646,0.646,0,0,0-.66.639v2.195a0.655,0.655,0,0,0,1.31,0v-2.195A0.644,0.644,0,0,0,1255.44,440Zm13.12,0a0.644,0.644,0,0,0-.65.639v2.195a0.655,0.655,0,0,0,1.31,0v-2.195A0.646,0.646,0,0,0,1268.56,440Z" transform="translate(-1252 -440)"/>
</svg>
