<svg xmlns="http://www.w3.org/2000/svg" width="12" height="20" viewBox="0 0 12 20">
  <defs>
    <style>
      .cls-1 {
        fill: #67407f;
        fill-rule: evenodd;
      }
    </style>
  </defs>
  <path id="smartphone.png8_smartphone.svg" data-name="smartphone.png8, smartphone.svg" class="cls-1" d="M865,1525.68a1.045,1.045,0,1,0-1.032-1.05A1.042,1.042,0,0,0,865,1525.68Zm0-1.28a0.23,0.23,0,0,1,.232.23,0.232,0.232,0,1,1-.464,0A0.23,0.23,0,0,1,865,1524.4Zm1.331-15.44h-2.666a0.405,0.405,0,0,0,0,.81h2.666A0.405,0.405,0,0,0,866.333,1508.96Zm2.544-1.96h-7.75a2.139,2.139,0,0,0-2.127,2.15v15.7a2.136,2.136,0,0,0,2.123,2.15h7.754a2.136,2.136,0,0,0,2.123-2.15v-15.7A2.133,2.133,0,0,0,868.877,1507Zm1.327,16.08v1.77a1.333,1.333,0,0,1-1.323,1.34h-7.754a1.333,1.333,0,0,1-1.323-1.34v-1.77h10.4Zm-10.4-12.16v-1.77a1.333,1.333,0,0,1,1.323-1.34h7.754a1.332,1.332,0,0,1,1.322,1.34v1.77H859.8Zm10.4,0.81v10.54H859.8v-10.54h10.4Z" transform="translate(-859 -1507)"/>
</svg>
