<svg xmlns="http://www.w3.org/2000/svg" width="20" height="19" viewBox="0 0 20 19">
  <defs>
    <style>
      .cls-1 {
        fill: #67407f;
        fill-rule: evenodd;
      }
    </style>
  </defs>
  <path id="speaker.png8_speaker.svg" data-name="speaker.png8, speaker.svg" class="cls-1" d="M1273,620.2V624h-20v-3.8h16.23a3.877,3.877,0,0,0-.64-2.382,2.7,2.7,0,0,0-2.06-.992,0.438,0.438,0,0,1-.39.241h-0.77a0.448,0.448,0,1,1,0-.9h0.77a0.435,0.435,0,0,1,.42.315,3.036,3.036,0,0,1,2.31,1.126,4.244,4.244,0,0,1,.71,2.586H1273Zm-10-6.893a4.155,4.155,0,1,0-4.17-4.155A4.164,4.164,0,0,0,1263,613.31Zm5.11,4.912a1.97,1.97,0,0,0-1.34-.722,1.056,1.056,0,0,1-.63.211h-0.77a1.052,1.052,0,0,1,0-2.1h0.77a1.031,1.031,0,0,1,.78.349,3.618,3.618,0,0,1,2.2,1.055c-0.01-.021,0-0.043-0.01-0.065l-0.19-.951a4.617,4.617,0,0,0-3.22-3.074,3.958,3.958,0,0,1-5.4,0,4.594,4.594,0,0,0-3.43,4.429v2.283h11.73A2.8,2.8,0,0,0,1268.11,618.222Z" transform="translate(-1253 -605)"/>
</svg>
