<?xml version="1.0" encoding="UTF-8" standalone="no"?>
<!-- Generator: Adobe Illustrator 16.0.0, SVG Export Plug-In . SVG Version: 6.00 Build 0)  -->

<svg
   xmlns:dc="http://purl.org/dc/elements/1.1/"
   xmlns:cc="http://creativecommons.org/ns#"
   xmlns:rdf="http://www.w3.org/1999/02/22-rdf-syntax-ns#"
   xmlns:svg="http://www.w3.org/2000/svg"
   xmlns="http://www.w3.org/2000/svg"
   xmlns:xlink="http://www.w3.org/1999/xlink"
   xmlns:sodipodi="http://sodipodi.sourceforge.net/DTD/sodipodi-0.dtd"
   xmlns:inkscape="http://www.inkscape.org/namespaces/inkscape"
   version="1.1"
   id="Layer_1"
   x="0px"
   y="0px"
   width="508.10803"
   height="154.64999"
   viewBox="0 0 508.10803 154.64999"
   enable-background="new 0 0 900 600"
   xml:space="preserve"
   inkscape:version="0.91 r13725"
   sodipodi:docname="robusta-code-v2.2.0.svg"><metadata
     id="metadata342"><rdf:RDF><cc:Work
         rdf:about=""><dc:format>image/svg+xml</dc:format><dc:type
           rdf:resource="http://purl.org/dc/dcmitype/StillImage" /><dc:title></dc:title></cc:Work></rdf:RDF></metadata><defs
     id="defs340"><linearGradient
       id="SVGID_12_"
       gradientUnits="userSpaceOnUse"
       x1="449.38821"
       y1="309.67871"
       x2="449.7132"
       y2="197.22881"><stop
         offset="0"
         style="stop-color:#FFFFFF;stop-opacity:0.7"
         id="stop325" /><stop
         offset="1"
         style="stop-color:#F1F2F2;stop-opacity:0"
         id="stop327" /></linearGradient><linearGradient
       id="SVGID_13_"
       gradientUnits="userSpaceOnUse"
       x1="443.60501"
       y1="309.66309"
       x2="443.92999"
       y2="197.21291"><stop
         offset="0"
         style="stop-color:#FFFFFF;stop-opacity:0.7"
         id="stop332" /><stop
         offset="1"
         style="stop-color:#F1F2F2;stop-opacity:0"
         id="stop334" /></linearGradient><linearGradient
       inkscape:collect="always"
       xlink:href="#SVGID_1_"
       id="linearGradient3698"
       gradientUnits="userSpaceOnUse"
       x1="491.80081"
       y1="181.46291"
       x2="380.65109"
       y2="273.54568" /><linearGradient
       inkscape:collect="always"
       xlink:href="#SVGID_2_"
       id="linearGradient3700"
       gradientUnits="userSpaceOnUse"
       x1="382.34961"
       y1="236.8994"
       x2="497.30179"
       y2="236.8994" /><linearGradient
       inkscape:collect="always"
       xlink:href="#SVGID_3_"
       id="linearGradient3702"
       gradientUnits="userSpaceOnUse"
       x1="504.80081"
       y1="197.15331"
       x2="393.65021"
       y2="289.23679" /><linearGradient
       inkscape:collect="always"
       xlink:href="#SVGID_4_"
       id="linearGradient3704"
       gradientUnits="userSpaceOnUse"
       x1="423.37601"
       y1="236.91209"
       x2="488.74509"
       y2="236.91209" /><linearGradient
       inkscape:collect="always"
       xlink:href="#SVGID_5_"
       id="linearGradient3706"
       gradientUnits="userSpaceOnUse"
       x1="505.54791"
       y1="198.0527"
       x2="394.3959"
       y2="290.13739" /><linearGradient
       inkscape:collect="always"
       xlink:href="#SVGID_6_"
       id="linearGradient3708"
       gradientUnits="userSpaceOnUse"
       x1="410.36621"
       y1="262.24319"
       x2="445.42719"
       y2="262.24319" /><linearGradient
       inkscape:collect="always"
       xlink:href="#SVGID_7_"
       id="linearGradient3710"
       gradientUnits="userSpaceOnUse"
       x1="481.24121"
       y1="168.7168"
       x2="370.0929"
       y2="260.7984" /><linearGradient
       inkscape:collect="always"
       xlink:href="#SVGID_8_"
       id="linearGradient3712"
       gradientUnits="userSpaceOnUse"
       x1="410.36279"
       y1="217.7881"
       x2="442.97461"
       y2="217.7881" /><linearGradient
       inkscape:collect="always"
       xlink:href="#SVGID_9_"
       id="linearGradient3714"
       gradientUnits="userSpaceOnUse"
       x1="581.62598"
       y1="140.0645"
       x2="239.2928"
       y2="398.76431" /><linearGradient
       inkscape:collect="always"
       xlink:href="#SVGID_10_"
       id="linearGradient3716"
       gradientUnits="userSpaceOnUse"
       x1="395.4194"
       y1="236.9453"
       x2="517.77539"
       y2="236.9453" /><linearGradient
       inkscape:collect="always"
       xlink:href="#SVGID_11_"
       id="linearGradient3718"
       gradientUnits="userSpaceOnUse"
       x1="372.1123"
       y1="236.9873"
       x2="527.8877"
       y2="236.9873" /></defs><sodipodi:namedview
     pagecolor="#ffffff"
     bordercolor="#666666"
     borderopacity="1"
     objecttolerance="10"
     gridtolerance="10"
     guidetolerance="10"
     inkscape:pageopacity="0"
     inkscape:pageshadow="2"
     inkscape:window-width="1396"
     inkscape:window-height="855"
     id="namedview338"
     showgrid="false"
     inkscape:zoom="0.99309219"
     inkscape:cx="295.94282"
     inkscape:cy="100.63899"
     inkscape:window-x="44"
     inkscape:window-y="0"
     inkscape:window-maximized="1"
     inkscape:current-layer="Layer_1"
     fit-margin-top="0"
     fit-margin-left="0"
     fit-margin-right="0"
     fit-margin-bottom="0" /><g
     id="TM_1_"
     transform="translate(1.0000001e-6,-447.65)" /><g
     id="TM"
     transform="translate(1.0000001e-6,-447.65)" /><g
     id="g4514"
     transform="translate(-169.51146,-322.33448)"><g
       id="g4499"><path
         d="m 480.95922,375.04661 c 3.074,0.639 5.555,1.658 7.751,3.291 4.571,3.398 6.091,9.097 3.953,14.645 -2.204,5.724 -6.774,8.423 -12.435,9.656 -5.615,1.224 -11.271,0.533 -16.912,0.203 -1.295,-0.076 -2.595,-0.208 -3.885,-0.148 -1.308,0.06 -1.741,-0.45 -1.728,-1.72 0.048,-4.001 0.018,-8.002 0.018,-12.004 0,-9.976 0,-19.953 0,-29.931 0,-0.467 0.016,-0.937 -0.009,-1.402 -0.156,-3.02 -0.931,-3.757 -4.097,-3.652 -1.019,0.033 -1.457,-0.181 -1.568,-1.262 -0.098,-0.968 0.104,-1.371 1.111,-1.515 6.581,-0.936 13.161,-1.844 19.836,-1.531 3.847,0.18 7.648,0.599 11.256,2.099 9.369,3.893 8.749,14.69 2.509,20.017 -1.632,1.392 -3.445,2.467 -5.8,3.254 z m -14.794,13.219 c 0,3.116 0.036,6.233 -0.022,9.349 -0.017,0.919 0.241,1.259 1.176,1.351 2.476,0.241 4.937,0.562 7.437,0.306 5.353,-0.544 8.973,-3.896 9.364,-8.724 0.5,-6.162 -2.378,-10.524 -7.873,-11.912 -2.939,-0.743 -5.947,-0.799 -8.957,-0.88 -0.899,-0.022 -1.153,0.287 -1.142,1.161 0.043,3.116 0.017,6.232 0.017,9.349 z m 0,-24.171 c 0,2.957 0.005,5.913 -0.005,8.871 -0.003,0.651 -0.071,1.206 0.913,1.191 2.96,-0.043 5.913,-0.135 8.756,-1.065 4.152,-1.358 6.199,-4.109 6.42,-8.532 0.237,-4.723 -1.654,-8.206 -5.519,-9.88 -2.813,-1.218 -5.802,-1.428 -8.838,-1.181 -1.282,0.104 -1.777,0.743 -1.748,2.036 0.064,2.852 0.021,5.707 0.021,8.56 z"
         id="path9"
         inkscape:connector-curvature="0"
         style="clip-rule:evenodd;fill-rule:evenodd" /><path
         d="m 396.33122,377.73461 c 0.023,-4.781 0.569,-8.969 2.214,-12.975 2.568,-6.256 7.018,-10.596 13.312,-12.957 6.538,-2.45 13.296,-2.891 20.052,-1.185 8.196,2.071 13.609,7.329 16.042,15.415 2.086,6.931 2.045,13.97 -0.203,20.853 -3.237,9.911 -10.513,15.08 -20.546,16.675 -4.71,0.748 -9.445,0.716 -14.044,-0.697 -9.67,-2.972 -14.709,-9.883 -16.396,-19.583 -0.349,-2.006 -0.299,-4.035 -0.431,-5.546 z m 43.817,0.261 c -0.091,-1.226 -0.158,-2.783 -0.331,-4.329 -0.524,-4.691 -1.664,-9.198 -4.425,-13.126 -3.794,-5.402 -9.107,-7.549 -15.555,-6.81 -6.013,0.688 -9.83,4.326 -12.075,9.735 -1.781,4.29 -2.23,8.81 -1.998,13.419 0.25,4.971 1.087,9.8 3.517,14.221 3.351,6.098 8.429,9.354 15.489,8.943 6.95,-0.403 11.111,-4.513 13.497,-10.731 1.355,-3.531 1.739,-7.243 1.881,-11.322 z"
         id="path11"
         inkscape:connector-curvature="0"
         style="clip-rule:evenodd;fill-rule:evenodd" /><path
         d="m 377.47922,376.36661 c 5.318,1.11 8.088,4.449 9.433,9.402 1.044,3.839 2.441,7.585 3.767,11.343 0.616,1.744 1.662,3.139 3.791,3.136 1.253,-0.001 0.915,0.977 1.046,1.684 0.151,0.817 -0.348,0.973 -0.979,1.041 -1.908,0.205 -3.812,0.507 -5.725,0.609 -3.007,0.162 -5.19,-1.137 -6.428,-3.943 -1.388,-3.144 -2.051,-6.514 -3.082,-9.769 -0.611,-1.925 -1.14,-3.875 -1.781,-5.789 -1.077,-3.205 -3.398,-4.849 -6.719,-5.154 -1.291,-0.12 -2.583,-0.254 -3.88,-0.3 -0.682,-0.023 -0.925,-0.212 -1.098,-0.932 -0.334,-1.386 -0.214,-1.999 1.48,-2.017 1.796,-0.021 3.583,-0.484 5.304,-1.117 4.853,-1.781 7.335,-5.814 6.981,-11.41 -0.299,-4.727 -3.192,-7.978 -8.141,-9.133 -1.99,-0.465 -4.011,-0.486 -6.043,-0.435 -1.516,0.038 -2.026,0.719 -2.021,2.243 0.046,14.502 0.028,29.004 0.028,43.506 0,3.326 0,3.332 -3.397,3.686 -1.03,0.106 -2.073,0.119 -3.1,0.255 -1.497,0.196 -1.993,-0.368 -1.988,-1.901 0.048,-14.035 0.027,-28.068 0.027,-42.104 0,-0.362 0.003,-0.728 0,-1.092 -0.015,-3.42 -0.848,-4.305 -4.222,-4.187 -1.1,0.038 -1.364,-0.268 -1.462,-1.327 -0.098,-1.055 0.291,-1.347 1.187,-1.475 6.632,-0.959 13.275,-1.793 19.997,-1.506 3.428,0.146 6.815,0.54 10.081,1.713 8.637,3.103 11.056,13.419 4.688,20.093 -1.046,1.097 -2.193,2.071 -3.537,2.781 -1.322,0.7 -2.679,1.339 -4.207,2.099 z"
         id="path13"
         inkscape:connector-curvature="0"
         style="clip-rule:evenodd;fill-rule:evenodd" /><path
         d="m 533.50822,398.64261 c -3.767,1.909 -7.4,3.542 -11.306,4.464 -3.521,0.831 -7.078,1.143 -10.652,0.424 -6.651,-1.338 -10.445,-6.106 -10.456,-13.11 -0.015,-10.447 -0.004,-20.895 -0.004,-31.341 0,-0.364 0.01,-0.728 -0.002,-1.092 -0.09,-3.011 -0.972,-3.838 -4.004,-3.804 -0.646,0.008 -1.382,0.385 -1.568,-0.834 -0.199,-1.287 -0.057,-1.797 1.405,-1.998 3.444,-0.478 6.875,-1.043 10.352,-1.237 1.98,-0.111 2.257,0.142 2.258,2.139 0.004,11.435 -0.009,22.869 0.017,34.304 0.002,1.239 0.093,2.502 0.348,3.711 0.923,4.365 3.86,6.938 8.296,7.702 5.313,0.916 10.015,-0.88 14.692,-2.969 0.807,-0.358 0.567,-1.014 0.567,-1.588 0.012,-9.511 0.008,-19.022 0.008,-28.534 0,-3.95 0.045,-7.901 -0.022,-11.85 -0.023,-1.392 0.571,-2.026 1.866,-2.142 1.551,-0.139 3.108,-0.209 4.655,-0.391 1.498,-0.177 1.993,0.377 1.986,1.909 -0.051,12.89 -0.027,25.78 -0.027,38.67 0,3.274 -0.051,6.551 0.025,9.823 0.027,1.257 -0.455,1.832 -1.652,1.935 -1.652,0.144 -3.304,0.303 -4.956,0.45 -1.055,0.094 -1.521,-0.435 -1.574,-1.453 -0.051,-0.978 -0.151,-1.955 -0.252,-3.188 z"
         id="path15"
         inkscape:connector-curvature="0"
         style="clip-rule:evenodd;fill-rule:evenodd" /><path
         d="m 562.89522,403.96761 c -2.469,0.003 -6.111,-0.477 -9.73,-1.232 -1.143,-0.238 -1.577,-0.834 -1.612,-1.912 -0.108,-3.268 -0.216,-6.535 -0.36,-9.803 -0.036,-0.796 0.078,-1.247 1.043,-1.243 0.794,0.004 1.311,-0.043 1.522,0.99 1.117,5.441 4.671,8.522 10.181,9.081 2.783,0.283 5.494,0.101 8.097,-0.943 4.037,-1.617 6.059,-5.164 5.42,-9.438 -0.316,-2.118 -1.71,-3.49 -3.354,-4.662 -2.391,-1.709 -5.185,-2.566 -7.854,-3.687 -3.529,-1.48 -7.095,-2.836 -10.305,-5.032 -7.975,-5.459 -7.147,-19.327 2.182,-23.769 5.117,-2.437 10.491,-2.725 15.978,-2.298 2.169,0.168 4.312,0.57 6.444,1.028 1.202,0.258 1.603,0.855 1.643,2.031 0.101,2.902 0.294,5.803 0.488,8.701 0.058,0.859 -0.108,1.294 -1.106,1.409 -0.928,0.109 -1.36,0.019 -1.634,-0.986 -2.104,-7.736 -11.205,-10.949 -17.843,-6.42 -3.764,2.567 -5.349,9.651 -0.144,13.141 2.486,1.667 5.271,2.638 8.019,3.709 2.893,1.13 5.82,2.179 8.536,3.717 4.829,2.734 7.512,6.735 7.276,12.425 -0.25,6.09 -3.208,10.377 -8.736,12.881 -4.105,1.858 -8.471,2.342 -14.151,2.312 z"
         id="path17"
         inkscape:connector-curvature="0"
         style="clip-rule:evenodd;fill-rule:evenodd" /><path
         d="m 655.53722,349.12661 c 1.26,-0.4 1.983,0.578 2.595,2.169 6.33,16.418 12.725,32.812 19.097,49.214 0.698,1.795 0.496,2.166 -1.46,2.386 -1.698,0.19 -3.416,0.219 -5.119,0.396 -1.148,0.118 -1.685,-0.416 -2.063,-1.423 -2.104,-5.569 -4.275,-11.113 -6.354,-16.692 -0.39,-1.047 -0.905,-1.396 -2.021,-1.372 -5.556,0.118 -11.113,0.183 -16.671,0.178 -1.028,-0.001 -1.309,0.469 -1.603,1.272 -1.999,5.441 -4.079,10.853 -6.021,16.314 -0.43,1.206 -1.108,1.637 -2.259,1.654 -0.83,0.013 -1.66,0.061 -2.491,0.064 -1.515,0.011 -1.643,-0.17 -1.041,-1.62 3.773,-9.082 7.557,-18.157 11.337,-27.236 2.588,-6.209 5.132,-12.438 7.803,-18.612 0.614,-1.423 0.904,-2.676 0.147,-4.084 -0.695,-1.299 -0.14,-1.938 1.206,-2.085 1.444,-0.157 2.889,-0.308 4.918,-0.523 z m -11.646,30.939 c 5.504,0 10.834,0 16.335,0 -2.757,-7.19 -5.469,-14.27 -8.279,-21.602 -2.744,7.358 -5.375,14.416 -8.056,21.602 z"
         id="path19"
         inkscape:connector-curvature="0"
         style="clip-rule:evenodd;fill-rule:evenodd" /><path
         d="m 607.61122,378.75861 c 0,-7.433 -0.046,-14.866 0.039,-22.299 0.018,-1.442 -0.423,-1.739 -1.743,-1.675 -2.592,0.127 -5.192,0.105 -7.788,0.126 -3.004,0.022 -5.022,1.432 -6.001,4.271 -0.438,1.271 -0.893,2.549 -1.159,3.86 -0.205,1.005 -0.767,0.906 -1.477,0.825 -0.729,-0.082 -1.228,-0.182 -1.149,-1.181 0.281,-3.518 0.457,-7.044 0.669,-10.567 0.061,-0.985 0.584,-1.309 1.547,-1.275 12.361,0.428 24.729,0.259 37.095,0.2 1.866,-0.009 3.737,-0.063 5.6,-0.198 1.096,-0.078 1.542,0.386 1.589,1.395 0.164,3.526 0.401,7.049 0.405,10.585 0.001,0.966 -0.525,0.938 -1.132,1.041 -0.726,0.123 -1.268,0.14 -1.477,-0.835 -0.304,-1.412 -0.748,-2.801 -1.23,-4.164 -0.944,-2.664 -2.897,-3.935 -5.703,-3.959 -2.597,-0.021 -5.199,0.021 -7.789,-0.128 -1.464,-0.085 -1.901,0.271 -1.895,1.827 0.068,14.503 0.042,29.005 0.041,43.508 0,2.452 -0.144,2.62 -2.597,2.844 -1.343,0.124 -2.694,0.165 -4.033,0.319 -1.371,0.16 -1.841,-0.388 -1.832,-1.752 0.046,-6.549 0.021,-13.099 0.021,-19.648 -10e-4,-1.04 -10e-4,-2.08 -10e-4,-3.12 z"
         id="path21"
         inkscape:connector-curvature="0"
         style="clip-rule:evenodd;fill-rule:evenodd" /></g><g
       id="g4508"><path
         d="m 633.08422,424.46961 c -0.023,4.497 -1.072,8.549 -4.688,11.461 -5.716,4.603 -16.895,3.55 -19.07,-7.45 -0.843,-4.258 -0.343,-8.403 2.099,-12.12 2.742,-4.176 7.862,-6.034 12.862,-4.771 4.841,1.223 8.199,5.379 8.688,10.771 0.064,0.723 0.076,1.45 0.109,2.109 z m -20.399,0.478 c 0.057,2.604 0.581,5.111 2.13,7.312 3.202,4.545 9.462,4.476 12.584,-0.126 2.653,-3.909 2.701,-10.55 0.107,-14.476 -3.26,-4.934 -9.96,-4.799 -13.023,0.263 -1.302,2.149 -1.727,4.523 -1.798,7.027 z"
         id="path23"
         inkscape:connector-curvature="0"
         style="clip-rule:evenodd;fill:#421377;fill-opacity:1;fill-rule:evenodd" /><path
         d="m 637.09022,424.93561 c 0,-3.847 0.038,-7.693 -0.025,-11.539 -0.017,-1.009 0.193,-1.478 1.28,-1.579 3.624,-0.339 7.23,-0.646 10.853,0.096 6.547,1.341 9.728,6.165 9.589,12.794 -0.03,1.499 -0.23,3.001 -0.675,4.455 -1.657,5.421 -5.865,8.549 -12.338,8.976 -2.324,0.152 -4.669,-0.007 -7.007,-0.007 -1.229,0 -1.771,-0.379 -1.721,-1.815 0.133,-3.79 0.044,-7.587 0.044,-11.381 z m 3.53,-0.145 c 0,2.391 0,4.779 0,7.169 0,3.568 0,3.568 3.571,3.482 6.351,-0.155 9.906,-3.093 10.834,-8.95 0.961,-6.068 -1.792,-10.74 -7.067,-11.907 -2.041,-0.452 -4.108,-0.449 -6.195,-0.206 -0.96,0.112 -1.173,0.49 -1.16,1.374 0.045,3.012 0.017,6.025 0.017,9.038 z"
         id="path25"
         inkscape:connector-curvature="0"
         style="clip-rule:evenodd;fill:#421377;fill-opacity:1;fill-rule:evenodd" /><path
         d="m 662.67422,424.83861 c 0,-3.952 0.029,-7.903 -0.02,-11.854 -0.011,-0.97 0.185,-1.35 1.262,-1.332 3.95,0.067 7.904,0.091 11.854,-0.009 1.32,-0.033 1.182,0.629 1.231,1.505 0.056,1.026 -0.152,1.461 -1.322,1.42 -2.7,-0.095 -5.408,0.024 -8.109,-0.056 -1.13,-0.033 -1.414,0.364 -1.372,1.422 0.073,1.869 0.069,3.745 10e-4,5.614 -0.037,1.001 0.24,1.366 1.3,1.335 2.598,-0.073 5.202,0.057 7.798,-0.057 1.318,-0.058 1.105,0.702 1.105,1.468 0,0.764 0.221,1.518 -1.104,1.46 -2.647,-0.118 -5.303,-0.003 -7.954,-0.054 -0.869,-0.017 -1.168,0.22 -1.146,1.122 0.061,2.391 0.062,4.785 0,7.175 -0.024,0.933 0.335,1.107 1.17,1.098 3.016,-0.042 6.034,0.061 9.046,-0.052 1.351,-0.05 1.179,0.679 1.199,1.524 0.021,0.901 0.062,1.544 -1.237,1.516 -4.106,-0.089 -8.216,-0.067 -12.321,-0.01 -1.071,0.014 -1.426,-0.266 -1.406,-1.382 0.067,-3.948 0.025,-7.9 0.025,-11.853 z"
         id="path27"
         inkscape:connector-curvature="0"
         style="clip-rule:evenodd;fill:#421377;fill-opacity:1;fill-rule:evenodd" /><path
         d="m 602.28822,435.44161 c 1.374,0.053 2.852,-0.231 4.286,-0.715 0.544,-0.183 1.062,-0.418 1.092,0.423 0.025,0.767 1.148,1.854 -0.168,2.269 -4.774,1.504 -9.562,1.677 -13.951,-1.138 -4.175,-2.678 -5.464,-6.882 -5.355,-11.594 0.247,-10.802 9.456,-15.273 18.74,-12.822 1.72,0.455 0.941,1.409 0.787,2.365 -0.197,1.243 -0.882,0.798 -1.566,0.559 -1.853,-0.645 -3.771,-0.779 -5.695,-0.544 -4.58,0.56 -7.61,3.545 -8.39,8.126 -0.247,1.446 -0.337,2.891 -0.125,4.339 0.846,5.794 4.335,8.774 10.345,8.732 z"
         id="path29"
         inkscape:connector-curvature="0"
         style="clip-rule:evenodd;fill:#421377;fill-opacity:1;fill-rule:evenodd" /></g></g><g
     id="g3545"
     transform="translate(-435.55022,-157.14461)"><g
       transform="translate(63.438219,-2.5173897)"
       id="g31"><g
         id="g33"><linearGradient
           id="SVGID_1_"
           gradientUnits="userSpaceOnUse"
           x1="491.80081"
           y1="181.46291"
           x2="380.65109"
           y2="273.54568"><stop
             offset="0.0056"
             style="stop-color:#FBCA28"
             id="stop36" /><stop
             offset="0.2528"
             style="stop-color:#FDF9CE"
             id="stop38" /><stop
             offset="0.2968"
             style="stop-color:#F6EBBC"
             id="stop40" /><stop
             offset="0.3841"
             style="stop-color:#E7D192"
             id="stop42" /><stop
             offset="0.5054"
             style="stop-color:#D1AC58"
             id="stop44" /><stop
             offset="0.5955"
             style="stop-color:#C2922E"
             id="stop46" /><stop
             offset="0.8246"
             style="stop-color:#E5C977"
             id="stop48" /><stop
             offset="0.8708"
             style="stop-color:#EED688"
             id="stop50" /><stop
             offset="1"
             style="stop-color:#FDF9CE"
             id="stop52" /></linearGradient><linearGradient
           id="SVGID_2_"
           gradientUnits="userSpaceOnUse"
           x1="382.34961"
           y1="236.8994"
           x2="497.30179"
           y2="236.8994"><stop
             offset="0.0056"
             style="stop-color:#FBCA28"
             id="stop55" /><stop
             offset="0.2528"
             style="stop-color:#FDF9CE"
             id="stop57" /><stop
             offset="0.2968"
             style="stop-color:#F6EBBC"
             id="stop59" /><stop
             offset="0.3841"
             style="stop-color:#E7D192"
             id="stop61" /><stop
             offset="0.5054"
             style="stop-color:#D1AC58"
             id="stop63" /><stop
             offset="0.5955"
             style="stop-color:#C2922E"
             id="stop65" /><stop
             offset="0.8246"
             style="stop-color:#E5C977"
             id="stop67" /><stop
             offset="0.8708"
             style="stop-color:#EED688"
             id="stop69" /><stop
             offset="1"
             style="stop-color:#FDF9CE"
             id="stop71" /></linearGradient><path
           stroke-miterlimit="10"
           d="m 397.51,169.762 c 1.811,0.919 3.825,0.776 5.746,1.041 8.384,1.147 16.792,2.109 25.169,3.301 4.999,0.708 10.006,1.346 15.015,1.982 12.797,1.63 25.586,3.316 38.379,4.979 5.138,0.665 10.274,1.33 15.396,2.229 -0.679,0 -1.359,0 -2.04,0 -29.523,0 -59.049,0.073 -88.575,-0.066 -5.362,-0.025 -10.334,3.905 -10.315,10.38 0.083,28.899 0.034,57.802 0.034,86.704 0,6.307 4.008,10.298 10.332,10.298 13.048,0 26.095,0.021 39.142,-0.027 1.363,-0.008 1.85,0.205 2.073,1.757 0.811,5.649 4.067,9.39 9.527,11.177 0.583,0.193 1.253,0.109 1.759,0.546 -0.414,0.022 -0.829,0.063 -1.244,0.063 -20.902,0.005 -41.804,0.013 -62.706,-0.003 -6.372,-0.005 -11.044,-3.872 -12.213,-10.047 -0.126,-0.655 -0.139,-1.341 -0.139,-2.014 0.016,-36.76 0.05,-73.523 0.052,-110.284 0,-6.888 5.796,-12.024 11.377,-11.813 1.079,0.043 2.129,-0.514 3.231,-0.203 z"
           id="path73"
           style="clip-rule:evenodd;fill:url(#linearGradient3698);fill-rule:evenodd;stroke:url(#linearGradient3700);stroke-miterlimit:10"
           inkscape:connector-curvature="0" /><linearGradient
           id="SVGID_3_"
           gradientUnits="userSpaceOnUse"
           x1="504.80081"
           y1="197.15331"
           x2="393.65021"
           y2="289.23679"><stop
             offset="0.0056"
             style="stop-color:#FBCA28"
             id="stop76" /><stop
             offset="0.2528"
             style="stop-color:#FDF9CE"
             id="stop78" /><stop
             offset="0.2968"
             style="stop-color:#F6EBBC"
             id="stop80" /><stop
             offset="0.3841"
             style="stop-color:#E7D192"
             id="stop82" /><stop
             offset="0.5054"
             style="stop-color:#D1AC58"
             id="stop84" /><stop
             offset="0.5955"
             style="stop-color:#C2922E"
             id="stop86" /><stop
             offset="0.8246"
             style="stop-color:#E5C977"
             id="stop88" /><stop
             offset="0.8708"
             style="stop-color:#EED688"
             id="stop90" /><stop
             offset="1"
             style="stop-color:#FDF9CE"
             id="stop92" /></linearGradient><linearGradient
           id="SVGID_4_"
           gradientUnits="userSpaceOnUse"
           x1="423.37601"
           y1="236.91209"
           x2="488.74509"
           y2="236.91209"><stop
             offset="0.0056"
             style="stop-color:#FBCA28"
             id="stop95" /><stop
             offset="0.2528"
             style="stop-color:#FDF9CE"
             id="stop97" /><stop
             offset="0.2968"
             style="stop-color:#F6EBBC"
             id="stop99" /><stop
             offset="0.3841"
             style="stop-color:#E7D192"
             id="stop101" /><stop
             offset="0.5054"
             style="stop-color:#D1AC58"
             id="stop103" /><stop
             offset="0.5955"
             style="stop-color:#C2922E"
             id="stop105" /><stop
             offset="0.8246"
             style="stop-color:#E5C977"
             id="stop107" /><stop
             offset="0.8708"
             style="stop-color:#EED688"
             id="stop109" /><stop
             offset="1"
             style="stop-color:#FDF9CE"
             id="stop111" /></linearGradient><path
           stroke-miterlimit="10"
           d="m 436.695,239.131 c 3.28,-1.274 5.963,-2.587 8.361,-4.445 10.295,-7.979 11.854,-24.063 3.128,-33.737 -4.025,-4.461 -9.364,-6.573 -15.173,-7.602 -1.729,-0.308 -3.475,-0.521 -5.214,-0.919 0.501,0 1.001,0 1.503,0 17.782,0 35.564,0 53.347,0 4.573,0 6.599,1.998 6.598,6.51 -10e-4,25.427 -10e-4,50.853 -0.004,76.276 0,4.062 -2.069,6.142 -6.116,6.145 -8.217,0 -16.431,-0.036 -24.646,0.038 -1.274,0.013 -1.852,-0.422 -2.276,-1.528 -2.123,-5.518 -3.281,-11.299 -4.719,-17.005 -1,-3.971 -1.651,-8.041 -3.224,-11.854 -2.185,-5.308 -5.399,-9.68 -11.565,-11.879 z"
           id="path113"
           style="clip-rule:evenodd;fill:url(#linearGradient3702);fill-rule:evenodd;stroke:url(#linearGradient3704);stroke-miterlimit:10"
           inkscape:connector-curvature="0" /><linearGradient
           id="SVGID_5_"
           gradientUnits="userSpaceOnUse"
           x1="505.54791"
           y1="198.0527"
           x2="394.3959"
           y2="290.13739"><stop
             offset="0.0056"
             style="stop-color:#FBCA28"
             id="stop116" /><stop
             offset="0.2528"
             style="stop-color:#FDF9CE"
             id="stop118" /><stop
             offset="0.2968"
             style="stop-color:#F6EBBC"
             id="stop120" /><stop
             offset="0.3841"
             style="stop-color:#E7D192"
             id="stop122" /><stop
             offset="0.5054"
             style="stop-color:#D1AC58"
             id="stop124" /><stop
             offset="0.5955"
             style="stop-color:#C2922E"
             id="stop126" /><stop
             offset="0.8246"
             style="stop-color:#E5C977"
             id="stop128" /><stop
             offset="0.8708"
             style="stop-color:#EED688"
             id="stop130" /><stop
             offset="1"
             style="stop-color:#FDF9CE"
             id="stop132" /></linearGradient><linearGradient
           id="SVGID_6_"
           gradientUnits="userSpaceOnUse"
           x1="410.36621"
           y1="262.24319"
           x2="445.42719"
           y2="262.24319"><stop
             offset="0.0056"
             style="stop-color:#FBCA28"
             id="stop135" /><stop
             offset="0.2528"
             style="stop-color:#FDF9CE"
             id="stop137" /><stop
             offset="0.2968"
             style="stop-color:#F6EBBC"
             id="stop139" /><stop
             offset="0.3841"
             style="stop-color:#E7D192"
             id="stop141" /><stop
             offset="0.5054"
             style="stop-color:#D1AC58"
             id="stop143" /><stop
             offset="0.5955"
             style="stop-color:#C2922E"
             id="stop145" /><stop
             offset="0.8246"
             style="stop-color:#E5C977"
             id="stop147" /><stop
             offset="0.8708"
             style="stop-color:#EED688"
             id="stop149" /><stop
             offset="1"
             style="stop-color:#FDF9CE"
             id="stop151" /></linearGradient><path
           stroke-miterlimit="10"
           d="m 410.896,262.216 c 0,-5.87 0.027,-11.74 -0.025,-17.61 -0.011,-1.128 0.245,-1.534 1.452,-1.498 3.632,0.102 7.274,-0.041 10.902,0.119 7.022,0.31 11.729,3.877 14.204,10.445 1.763,4.683 2.482,9.629 3.741,14.44 1.075,4.11 1.969,8.274 3.597,12.22 0.385,0.935 0.051,1.036 -0.76,1.034 -10.7,-0.013 -21.401,-0.025 -32.102,0.015 -1.19,0.003 -1.033,-0.675 -1.033,-1.401 0.004,-5.921 0.003,-11.842 0.003,-17.764 0.007,0 0.014,0 0.021,0 z"
           id="path153"
           style="clip-rule:evenodd;fill:url(#linearGradient3706);fill-rule:evenodd;stroke:url(#linearGradient3708);stroke-miterlimit:10"
           inkscape:connector-curvature="0" /><linearGradient
           id="SVGID_7_"
           gradientUnits="userSpaceOnUse"
           x1="481.24121"
           y1="168.7168"
           x2="370.0929"
           y2="260.7984"><stop
             offset="0.0056"
             style="stop-color:#FBCA28"
             id="stop156" /><stop
             offset="0.2528"
             style="stop-color:#FDF9CE"
             id="stop158" /><stop
             offset="0.2968"
             style="stop-color:#F6EBBC"
             id="stop160" /><stop
             offset="0.3841"
             style="stop-color:#E7D192"
             id="stop162" /><stop
             offset="0.5054"
             style="stop-color:#D1AC58"
             id="stop164" /><stop
             offset="0.5955"
             style="stop-color:#C2922E"
             id="stop166" /><stop
             offset="0.8246"
             style="stop-color:#E5C977"
             id="stop168" /><stop
             offset="0.8708"
             style="stop-color:#EED688"
             id="stop170" /><stop
             offset="1"
             style="stop-color:#FDF9CE"
             id="stop172" /></linearGradient><linearGradient
           id="SVGID_8_"
           gradientUnits="userSpaceOnUse"
           x1="410.36279"
           y1="217.7881"
           x2="442.97461"
           y2="217.7881"><stop
             offset="0.0056"
             style="stop-color:#FBCA28"
             id="stop175" /><stop
             offset="0.2528"
             style="stop-color:#FDF9CE"
             id="stop177" /><stop
             offset="0.2968"
             style="stop-color:#F6EBBC"
             id="stop179" /><stop
             offset="0.3841"
             style="stop-color:#E7D192"
             id="stop181" /><stop
             offset="0.5054"
             style="stop-color:#D1AC58"
             id="stop183" /><stop
             offset="0.5955"
             style="stop-color:#C2922E"
             id="stop185" /><stop
             offset="0.8246"
             style="stop-color:#E5C977"
             id="stop187" /><stop
             offset="0.8708"
             style="stop-color:#EED688"
             id="stop189" /><stop
             offset="1"
             style="stop-color:#FDF9CE"
             id="stop191" /></linearGradient><path
           stroke-miterlimit="10"
           d="m 410.873,218.217 c 0,-4.936 0.011,-9.872 -0.01,-14.806 -0.004,-0.787 0.021,-1.351 1.033,-1.511 6.57,-1.035 13.131,-1.398 19.589,0.562 7.008,2.13 10.668,7.392 10.966,14.019 0.417,9.193 -4.805,14.274 -10.712,16.455 -2.809,1.039 -5.721,1.503 -8.693,1.541 -3.637,0.049 -7.273,-0.03 -10.908,0.041 -1.085,0.021 -1.269,-0.381 -1.26,-1.341 0.041,-4.986 0.019,-9.974 0.019,-14.96 -0.008,0 -0.016,0 -0.024,0 z"
           id="path193"
           style="clip-rule:evenodd;fill:url(#linearGradient3710);fill-rule:evenodd;stroke:url(#linearGradient3712);stroke-miterlimit:10"
           inkscape:connector-curvature="0" /></g><path
         d="m 394.91,169.762 c 35.863,0.002 71.726,0.007 107.589,0.013 6.9,0.002 12.146,5.189 12.162,12.101 0.026,12.472 0.008,24.946 0.008,37.421 0,24.012 0,48.026 0,72.038 -10e-4,7.734 -5.034,12.8 -12.749,12.795 -15.124,-0.013 -30.246,-0.044 -45.369,-0.066 -0.505,-0.437 -1.176,-0.353 -1.758,-0.546 -5.461,-1.787 -8.717,-5.527 -9.528,-11.177 -0.224,-1.552 -0.709,-1.765 -2.073,-1.757 -13.047,0.048 -26.094,0.027 -39.141,0.027 -6.325,0 -10.333,-3.991 -10.333,-10.298 0,-28.902 0.05,-57.805 -0.034,-86.704 -0.018,-6.475 4.954,-10.405 10.316,-10.38 29.525,0.14 59.051,0.066 88.575,0.066 0.681,0 1.361,0 2.04,0 -5.122,-0.899 -10.259,-1.564 -15.396,-2.229 -12.793,-1.663 -25.583,-3.35 -38.38,-4.979 -5.008,-0.637 -10.015,-1.274 -15.015,-1.982 -8.376,-1.191 -16.784,-2.153 -25.168,-3.301 -1.921,-0.266 -3.935,-0.123 -5.746,-1.042 z m 39.186,69.369 c 6.166,2.199 9.379,6.571 11.565,11.878 1.571,3.813 2.223,7.884 3.224,11.854 1.437,5.706 2.596,11.487 4.719,17.005 0.425,1.106 1.001,1.541 2.275,1.528 8.216,-0.074 16.43,-0.038 24.646,-0.038 4.048,-0.003 6.117,-2.082 6.117,-6.145 0.002,-25.424 0.002,-50.85 0.004,-76.276 10e-4,-4.512 -2.025,-6.51 -6.598,-6.51 -17.783,0 -35.565,0 -53.348,0 -0.501,0 -1.001,0 -1.503,0 1.739,0.398 3.485,0.611 5.214,0.919 5.81,1.028 11.148,3.141 15.174,7.602 8.727,9.674 7.166,25.759 -3.128,33.737 -2.398,1.859 -5.081,3.171 -8.361,4.446 z m -25.8,23.085 c -0.008,0 -0.014,0 -0.021,0 0,5.922 0.002,11.843 -0.002,17.764 0,0.727 -0.157,1.404 1.033,1.401 10.699,-0.04 21.4,-0.027 32.102,-0.015 0.81,0.002 1.144,-0.1 0.759,-1.034 -1.627,-3.945 -2.521,-8.109 -3.597,-12.22 -1.258,-4.812 -1.978,-9.758 -3.741,-14.44 -2.476,-6.568 -7.182,-10.136 -14.203,-10.445 -3.629,-0.16 -7.271,-0.018 -10.903,-0.119 -1.207,-0.036 -1.462,0.37 -1.452,1.498 0.053,5.87 0.025,11.74 0.025,17.61 z m -0.023,-43.999 c 0.008,0 0.015,0 0.022,0 0,4.986 0.023,9.974 -0.018,14.96 -0.009,0.96 0.174,1.361 1.26,1.341 3.635,-0.071 7.271,0.008 10.907,-0.041 2.974,-0.038 5.886,-0.502 8.694,-1.541 5.907,-2.181 11.128,-7.262 10.712,-16.455 -0.298,-6.627 -3.958,-11.889 -10.966,-14.019 -6.458,-1.96 -13.02,-1.597 -19.589,-0.562 -1.012,0.16 -1.037,0.724 -1.034,1.511 0.022,4.934 0.012,9.87 0.012,14.806 z"
         id="path195"
         inkscape:connector-curvature="0"
         style="clip-rule:evenodd;fill:#ffffff;fill-rule:evenodd" /><linearGradient
         id="SVGID_9_"
         gradientUnits="userSpaceOnUse"
         x1="581.62598"
         y1="140.0645"
         x2="239.2928"
         y2="398.76431"><stop
           offset="0"
           style="stop-color:#200D3F"
           id="stop198" /><stop
           offset="0.0741"
           style="stop-color:#210F41"
           id="stop200" /><stop
           offset="0.1225"
           style="stop-color:#271345"
           id="stop202" /><stop
           offset="0.1635"
           style="stop-color:#301A4D"
           id="stop204" /><stop
           offset="0.2005"
           style="stop-color:#3D2459"
           id="stop206" /><stop
           offset="0.2346"
           style="stop-color:#4F3069"
           id="stop208" /><stop
           offset="0.2664"
           style="stop-color:#643E7D"
           id="stop210" /><stop
           offset="0.2798"
           style="stop-color:#704687"
           id="stop212" /><stop
           offset="0.287"
           style="stop-color:#694181"
           id="stop214" /><stop
           offset="0.3159"
           style="stop-color:#52326C"
           id="stop216" /><stop
           offset="0.3465"
           style="stop-color:#3F255B"
           id="stop218" /><stop
           offset="0.3791"
           style="stop-color:#311B4E"
           id="stop220" /><stop
           offset="0.4144"
           style="stop-color:#281446"
           id="stop222" /><stop
           offset="0.4544"
           style="stop-color:#220F41"
           id="stop224" /><stop
           offset="0.5096"
           style="stop-color:#200D3F"
           id="stop226" /><stop
           offset="0.5191"
           style="stop-color:#281446"
           id="stop228" /><stop
           offset="0.5487"
           style="stop-color:#3D2459"
           id="stop230" /><stop
           offset="0.5804"
           style="stop-color:#4F3069"
           id="stop232" /><stop
           offset="0.6142"
           style="stop-color:#5D3A76"
           id="stop234" /><stop
           offset="0.6513"
           style="stop-color:#674080"
           id="stop236" /><stop
           offset="0.694"
           style="stop-color:#6E4485"
           id="stop238" /><stop
           offset="0.7554"
           style="stop-color:#704687"
           id="stop240" /><stop
           offset="0.763"
           style="stop-color:#694181"
           id="stop242" /><stop
           offset="0.7937"
           style="stop-color:#52326C"
           id="stop244" /><stop
           offset="0.8264"
           style="stop-color:#3F255B"
           id="stop246" /><stop
           offset="0.861"
           style="stop-color:#311B4E"
           id="stop248" /><stop
           offset="0.8986"
           style="stop-color:#281446"
           id="stop250" /><stop
           offset="0.9413"
           style="stop-color:#220F41"
           id="stop252" /><stop
           offset="1"
           style="stop-color:#200D3F"
           id="stop254" /></linearGradient><linearGradient
         id="SVGID_10_"
         gradientUnits="userSpaceOnUse"
         x1="395.4194"
         y1="236.9453"
         x2="517.77539"
         y2="236.9453"><stop
           offset="0"
           style="stop-color:#200D3F"
           id="stop257" /><stop
           offset="0.1324"
           style="stop-color:#210F41"
           id="stop259" /><stop
           offset="0.2189"
           style="stop-color:#271345"
           id="stop261" /><stop
           offset="0.2922"
           style="stop-color:#301A4D"
           id="stop263" /><stop
           offset="0.3582"
           style="stop-color:#3D2459"
           id="stop265" /><stop
           offset="0.4193"
           style="stop-color:#4F3069"
           id="stop267" /><stop
           offset="0.476"
           style="stop-color:#643E7D"
           id="stop269" /><stop
           offset="0.5"
           style="stop-color:#704687"
           id="stop271" /><stop
           offset="0.5192"
           style="stop-color:#67407F"
           id="stop273" /><stop
           offset="0.5796"
           style="stop-color:#50316B"
           id="stop275" /><stop
           offset="0.6441"
           style="stop-color:#3E255A"
           id="stop277" /><stop
           offset="0.713"
           style="stop-color:#311B4E"
           id="stop279" /><stop
           offset="0.7885"
           style="stop-color:#271346"
           id="stop281" /><stop
           offset="0.8754"
           style="stop-color:#220F41"
           id="stop283" /><stop
           offset="1"
           style="stop-color:#200D3F"
           id="stop285" /></linearGradient><path
         stroke-miterlimit="10"
         d="m 397.51,169.762 c 35.863,0.002 71.727,0.007 107.589,0.013 6.9,0.002 12.147,5.189 12.162,12.101 0.027,12.472 0.008,24.946 0.008,37.421 0,24.012 0,48.026 0,72.038 -10e-4,7.734 -5.033,12.8 -12.748,12.795 -15.124,-0.013 -30.247,-0.044 -45.369,-0.066 -0.506,-0.437 -1.176,-0.353 -1.759,-0.546 -5.46,-1.787 -8.717,-5.527 -9.527,-11.177 -0.224,-1.552 -0.71,-1.765 -2.073,-1.757 -13.047,0.048 -26.094,0.027 -39.142,0.027 -6.324,0 -10.332,-3.991 -10.332,-10.298 0,-28.902 0.049,-57.805 -0.034,-86.704 -0.019,-6.475 4.953,-10.405 10.315,-10.38 29.526,0.14 59.052,0.066 88.575,0.066 0.681,0 1.361,0 2.04,0 -5.122,-0.899 -10.259,-1.564 -15.396,-2.229 -12.793,-1.663 -25.582,-3.35 -38.379,-4.979 -5.009,-0.637 -10.016,-1.274 -15.015,-1.982 -8.377,-1.191 -16.785,-2.153 -25.169,-3.301 -1.921,-0.266 -3.936,-0.123 -5.746,-1.042 z m 39.185,69.369 c 6.166,2.199 9.38,6.571 11.565,11.878 1.572,3.813 2.224,7.884 3.224,11.854 1.438,5.706 2.596,11.487 4.719,17.005 0.425,1.106 1.002,1.541 2.276,1.528 8.215,-0.074 16.429,-0.038 24.646,-0.038 4.047,-0.003 6.116,-2.082 6.116,-6.145 0.003,-25.424 0.003,-50.85 0.004,-76.276 10e-4,-4.512 -2.024,-6.51 -6.598,-6.51 -17.782,0 -35.564,0 -53.347,0 -0.502,0 -1.002,0 -1.503,0 1.739,0.398 3.484,0.611 5.214,0.919 5.809,1.028 11.147,3.141 15.173,7.602 8.727,9.674 7.167,25.759 -3.128,33.737 -2.398,1.859 -5.08,3.171 -8.361,4.446 z m -25.799,23.085 c -0.008,0 -0.015,0 -0.021,0 0,5.922 10e-4,11.843 -0.003,17.764 0,0.727 -0.157,1.404 1.033,1.401 10.7,-0.04 21.401,-0.027 32.102,-0.015 0.811,0.002 1.145,-0.1 0.76,-1.034 -1.628,-3.945 -2.521,-8.109 -3.597,-12.22 -1.259,-4.812 -1.979,-9.758 -3.741,-14.44 -2.476,-6.568 -7.182,-10.136 -14.204,-10.445 -3.628,-0.16 -7.271,-0.018 -10.902,-0.119 -1.207,-0.036 -1.463,0.37 -1.452,1.498 0.053,5.87 0.025,11.74 0.025,17.61 z m -0.023,-43.999 c 0.008,0 0.016,0 0.023,0 0,4.986 0.022,9.974 -0.019,14.96 -0.009,0.96 0.175,1.361 1.26,1.341 3.635,-0.071 7.271,0.008 10.908,-0.041 2.973,-0.038 5.885,-0.502 8.693,-1.541 5.907,-2.181 11.129,-7.262 10.712,-16.455 -0.298,-6.627 -3.958,-11.889 -10.966,-14.019 -6.458,-1.96 -13.019,-1.597 -19.589,-0.562 -1.012,0.16 -1.037,0.724 -1.033,1.511 0.022,4.934 0.011,9.87 0.011,14.806 z"
         id="path287"
         style="clip-rule:evenodd;fill:url(#linearGradient3714);fill-rule:evenodd;stroke:url(#linearGradient3716);stroke-miterlimit:10"
         inkscape:connector-curvature="0" /><linearGradient
         id="SVGID_11_"
         gradientUnits="userSpaceOnUse"
         x1="372.1123"
         y1="236.9873"
         x2="527.8877"
         y2="236.9873"><stop
           offset="0"
           style="stop-color:#3C2561"
           id="stop290" /><stop
           offset="0.1354"
           style="stop-color:#3E2663"
           id="stop292" /><stop
           offset="0.2238"
           style="stop-color:#442B67"
           id="stop294" /><stop
           offset="0.2988"
           style="stop-color:#4E356E"
           id="stop296" /><stop
           offset="0.3663"
           style="stop-color:#5E4379"
           id="stop298" /><stop
           offset="0.4288"
           style="stop-color:#72578A"
           id="stop300" /><stop
           offset="0.4868"
           style="stop-color:#8E70A0"
           id="stop302" /><stop
           offset="0.5"
           style="stop-color:#9778A8"
           id="stop304" /><stop
           offset="0.5077"
           style="stop-color:#9174A3"
           id="stop306" /><stop
           offset="0.5695"
           style="stop-color:#75598B"
           id="stop308" /><stop
           offset="0.6355"
           style="stop-color:#5F457A"
           id="stop310" /><stop
           offset="0.7061"
           style="stop-color:#4F366F"
           id="stop312" /><stop
           offset="0.7834"
           style="stop-color:#442C67"
           id="stop314" /><stop
           offset="0.8724"
           style="stop-color:#3E2663"
           id="stop316" /><stop
           offset="1"
           style="stop-color:#3C2561"
           id="stop318" /></linearGradient><path
         stroke-miterlimit="10"
         d="m 525.888,296.425 c 0,8.775 -6.985,15.887 -15.6,15.887 l -120.575,0 c -8.615,0 -15.601,-7.111 -15.601,-15.887 l 0,-118.874 c 0,-8.774 6.985,-15.889 15.601,-15.889 l 120.575,0 c 8.614,0 15.6,7.114 15.6,15.889 l 0,118.874 z"
         id="path320"
         style="clip-rule:evenodd;fill:none;stroke:url(#linearGradient3718);stroke-width:4;stroke-miterlimit:10"
         inkscape:connector-curvature="0" /></g></g></svg>