<svg xmlns="http://www.w3.org/2000/svg" width="19" height="20" viewBox="0 0 19 20">
  <defs>
    <style>
      .cls-1 {
        fill: #67407f;
        fill-rule: evenodd;
      }
    </style>
  </defs>
  <path id="check-list.png8_check-list.svg" data-name="check-list.png8, check-list.svg" class="cls-1" d="M424.2,668.576a3.757,3.757,0,0,1,2.1.64s3.1-3.136,3.262-3.216v-9.072a0.96,0.96,0,0,0-.975-0.928H415.864a0.876,0.876,0,0,0-.864.928V674.3a0.836,0.836,0,0,0,.864.88h6.108l-0.384-.352a3.594,3.594,0,0,1-1.071-2.592,3.7,3.7,0,0,1,1.071-2.608A3.747,3.747,0,0,1,424.2,668.576Zm-4.4-10.048a0.929,0.929,0,0,1,.928-0.928h6.3a0.929,0.929,0,0,1,.928.928v0.384a0.929,0.929,0,0,1-.928.928h-6.3a0.929,0.929,0,0,1-.928-0.928v-0.384Zm0,3.52a0.929,0.929,0,0,1,.928-0.928h6.3a0.929,0.929,0,0,1,.928.928v0.384a0.929,0.929,0,0,1-.928.928h-6.3a0.929,0.929,0,0,1-.928-0.928v-0.384Zm-2.222,4.72a1.088,1.088,0,1,1,1.087-1.088A1.079,1.079,0,0,1,417.575,666.768Zm0-3.568a1.088,1.088,0,1,1,1.087-1.088A1.1,1.1,0,0,1,417.575,663.2Zm0-3.424a1.088,1.088,0,1,1,1.087-1.088A1.079,1.079,0,0,1,417.575,659.776Zm2.222,6.016v-0.384a0.929,0.929,0,0,1,.928-0.928h6.3a0.929,0.929,0,0,1,.928.928v0.384a0.929,0.929,0,0,1-.928.928h-6.3A0.929,0.929,0,0,1,419.8,665.792Zm5.469,9.744a1.583,1.583,0,0,0,2.239,0l6.013-6.016a1.6,1.6,0,0,0,.064-2.224,1.57,1.57,0,0,0-2.271-.032l-4.27,4.272a0.916,0.916,0,0,1-1.311,0l-0.56-.56a1.583,1.583,0,0,0-2.238,2.24Z" transform="translate(-415 -656)"/>
</svg>
