<svg xmlns="http://www.w3.org/2000/svg" width="20" height="12" viewBox="0 0 20 12">
  <defs>
    <style>
      .cls-1 {
        fill: #67407f;
        fill-rule: evenodd;
      }
    </style>
  </defs>
  <path id="email.png8_email.svg" data-name="email.png8, email.svg" class="cls-1" d="M713.017,1512.01a1.017,1.017,0,0,0-1.024-1.01h0l-17.937.02a1.03,1.03,0,0,0-.724.3,1.009,1.009,0,0,0-.3.72l0.014,9.95a0.984,0.984,0,0,0,.3.71,1.029,1.029,0,0,0,.723.3h0l17.937-.03a1.015,1.015,0,0,0,1.023-1.01Zm-2.15,0-7.835,5.38-7.851-5.36Zm-4.522,6.4,4.648,3.55-15.937.03,4.676-3.58a0.5,0.5,0,0,0,.091-0.71,0.519,0.519,0,0,0-.719-0.09l-5.035,3.85-0.013-8.96,8.685,5.92a0.519,0.519,0,0,0,.584,0l8.668-5.95,0.014,8.99-5.034-3.85a0.519,0.519,0,0,0-.719.09A0.5,0.5,0,0,0,706.345,1518.41Z" transform="translate(-693.031 -1511)"/>
</svg>
