<svg xmlns="http://www.w3.org/2000/svg" width="19" height="20" viewBox="0 0 19 20">
  <defs>
    <style>
      .cls-1 {
        fill: #67407f;
        fill-rule: evenodd;
      }
    </style>
  </defs>
  <path id="globe.png8_globe.svg" data-name="globe.png8, globe.svg" class="cls-1" d="M1258.5,780.108s3.49-3.56,3.49-6.532a3.491,3.491,0,1,0-6.98,0C1255.01,776.717,1258.5,780.108,1258.5,780.108Zm-1.82-6.532a1.821,1.821,0,1,1,1.82,1.864A1.845,1.845,0,0,1,1256.68,773.576Zm14.71,1.26-0.28.093-1.52.138-0.42.7-0.31-.1-1.21-1.114-0.17-.579-0.24-.618-0.76-.7-0.89-.18-0.02.42,0.88,0.876,0.42,0.517-0.48.258-0.39-.119-0.59-.25,0.02-.487-0.77-.325-0.25,1.141-0.78.181,0.08,0.637,1.01,0.2,0.17-1.019,0.84,0.127,0.39,0.233h0.62l0.43,0.876,1.13,1.177-0.09.457-0.91-.119-1.57.815-1.14,1.4-0.15.617h-0.4l-0.76-.358-0.74.358,0.18,0.8,0.32-.381,0.57-.017-0.04.717,0.47,0.139,0.46,0.538,0.76-.22,0.87,0.141,1.01,0.279,0.51,0.06,0.85,0.995,1.66,1-1.07,2.092-1.13.538-0.43,1.195-1.63,1.117-0.17.645a9.688,9.688,0,0,0,7.27-9.461A9.825,9.825,0,0,0,1271.39,774.836Zm-6.8,10.512-0.69-1.315,0.64-1.358-0.64-.2-0.71-.734-1.58-.362-0.53-1.126v0.669h-0.23l-1-1.394c-0.49.6-.86,0.984-0.91,1.031l-0.43.439-0.44-.429a15.551,15.551,0,0,1-3.13-4.512,9.8,9.8,0,0,0-.94,4.2,9.43,9.43,0,0,0,10.69,9.658l-0.1-1.18s0.44-1.753.44-1.812S1264.59,785.348,1264.59,785.348Zm-1.84-12.964,0.7,0.118,1.7-.163,0.46-.528,0.66-.451,0.93,0.144,0.34-.053a9.234,9.234,0,0,0-4.04-.935,9.341,9.341,0,0,0-1.97.218,4.274,4.274,0,0,1,1,2Zm1.15-.9,0.97-.547,0.62,0.368-0.9.705-0.86.089-0.39-.258Z" transform="translate(-1254 -770)"/>
</svg>
