<svg xmlns="http://www.w3.org/2000/svg" width="24" height="18.031" viewBox="0 0 24 18.031">
  <defs>
    <style>
      .cls-1 {
        fill: #67407f;
        fill-rule: evenodd;
      }
    </style>
  </defs>
  <path id="price-tag.png8_price-tag.svg" data-name="price-tag.png8, price-tag.svg" class="cls-1" d="M418.692,356.326a1.9,1.9,0,0,0,2.607,0l8.925-8.559a2.52,2.52,0,0,0,.582-0.851,9.782,9.782,0,0,0,2.538.364c1.9-.01,2.533-0.808,2.74-1.286s0.355-1.465-.981-2.769l-0.044-.043a10.748,10.748,0,0,0-3.4-2.07c-0.251-.1-0.5-0.189-0.749-0.274v-0.014a1.978,1.978,0,0,0-1.991-1.91l-5.347-.071a2.663,2.663,0,0,0-1.888.738l-8.93,8.559a1.718,1.718,0,0,0,0,2.5Zm6.88-14.42a1.571,1.571,0,0,1,2.158,0,1.42,1.42,0,0,1,.429,1.248,10.794,10.794,0,0,0,2.036,1.063c0.266,0.1.522,0.2,0.768,0.279l-0.029-2.061c0.044,0.019.083,0.033,0.128,0.052a9.34,9.34,0,0,1,2.893,1.749l0.029,0.028a1.43,1.43,0,0,1,.656,1.153c-0.168.383-1.967,0.724-4.7-.368a10.747,10.747,0,0,1-2.154-1.148c-0.019.023-.044,0.047-0.064,0.07a1.571,1.571,0,0,1-2.158,0A1.418,1.418,0,0,1,425.572,341.906Z" transform="translate(-412.219 -338.844)"/>
</svg>
