<svg xmlns="http://www.w3.org/2000/svg" width="20" height="16" viewBox="0 0 20 16">
  <defs>
    <style>
      .cls-1 {
        fill: #67407f;
        fill-rule: evenodd;
      }
    </style>
  </defs>
  <path id="tags.png8_tags.svg" data-name="tags.png8, tags.svg" class="cls-1" d="M845.472,697h-4.147a5.016,5.016,0,0,0-3.035,1.223L831.324,705a1.7,1.7,0,0,0,0,2.446l5.189,5.048a1.816,1.816,0,0,0,2.513,0l6.967-6.778a4.745,4.745,0,0,0,1.257-2.952v-4.036A1.759,1.759,0,0,0,845.472,697Zm-2.37,5.765a1.73,1.73,0,1,1,1.778-1.73A1.753,1.753,0,0,1,843.1,702.765Zm-14.394,3.866,6.34,6.169a1.822,1.822,0,0,1-2.091-.3l-5.189-5.048a1.7,1.7,0,0,1,0-2.446l6.967-6.778A5.016,5.016,0,0,1,837.77,697l-9.062,8.816A0.568,0.568,0,0,0,828.708,706.631Z" transform="translate(-827.25 -697)"/>
</svg>
