<svg xmlns="http://www.w3.org/2000/svg" width="18" height="18" viewBox="0 0 18 18">
  <defs>
    <style>
      .cls-1 {
        fill: #67407f;
        fill-rule: evenodd;
      }
    </style>
  </defs>
  <path id="target.png8_target.svg" data-name="target.png8, target.svg" class="cls-1" d="M429.793,527.482a8.971,8.971,0,0,0-3.275-3.276,9.057,9.057,0,0,0-9.035,0,8.966,8.966,0,0,0-3.276,3.276,9.057,9.057,0,0,0,0,9.035,8.953,8.953,0,0,0,3.275,3.275,9.059,9.059,0,0,0,9.036,0,8.953,8.953,0,0,0,3.275-3.275A9.057,9.057,0,0,0,429.793,527.482Zm-0.891,7.429a7.393,7.393,0,0,1-3.99,3.991,7.4,7.4,0,0,1-5.824,0,7.393,7.393,0,0,1-3.99-3.991,7.389,7.389,0,0,1,0-5.824,7.4,7.4,0,0,1,3.99-3.99,7.389,7.389,0,0,1,5.824,0,7.4,7.4,0,0,1,3.99,3.99A7.389,7.389,0,0,1,428.9,534.911ZM422,526a6,6,0,1,0,4.242,1.757A5.784,5.784,0,0,0,422,526Zm3.182,9.181A4.5,4.5,0,1,1,426.5,532,4.336,4.336,0,0,1,425.182,535.181ZM422,529a3,3,0,1,0,2.121.878A2.889,2.889,0,0,0,422,529Z" transform="translate(-413 -523)"/>
</svg>
