<svg xmlns="http://www.w3.org/2000/svg" width="20" height="18" viewBox="0 0 20 18">
  <defs>
    <style>
      .cls-1 {
        fill: #67407f;
        fill-rule: evenodd;
      }
    </style>
  </defs>
  <path id="training.png8_training.svg" data-name="training.png8, training.svg" class="cls-1" d="M1252,277.119v1.727a1.462,1.462,0,0,0,1.47,1.45h5.25l-0.22,1.529h-1.13V283h9.26v-1.175h-1.13l-0.22-1.529h5.25a1.462,1.462,0,0,0,1.47-1.45v-1.727h-20Zm10.82,2.176h-1.64V278.12h1.64V279.3Zm7.71-14.3h-17.06a1.462,1.462,0,0,0-1.47,1.449v9.5h20v-9.5A1.462,1.462,0,0,0,1270.53,265Zm-9.12,9.377h-5.89V267.35h5.89v7.027h0Zm7.07,0h-5.89V267.35h5.89v7.027Zm-11.79-5.907h3.54v1.175h-3.54V268.47Zm0,1.806h3.54v1.175h-3.54v-1.175Zm0,1.806h3.54v1.176h-3.54v-1.176Zm7.08-3.612h3.54v1.175h-3.54V268.47Zm0,1.806h3.54v1.175h-3.54v-1.175Zm0,1.806h3.54v1.176h-3.54v-1.176Z" transform="translate(-1252 -265)"/>
</svg>
